<?xml version="1.0" encoding="UTF-8"?>
<svg width="1505px" height="1058px" viewBox="0 0 1505 1058" version="1.1" xmlns="http://www.w3.org/2000/svg" xmlns:xlink="http://www.w3.org/1999/xlink">
    <!-- Generator: Sketch 43.1 (39012) - http://www.bohemiancoding.com/sketch -->
    <title>youtube</title>
    <desc>Created with Sketch.</desc>
    <defs></defs>
    <g id="Artboard" stroke="none" stroke-width="1" fill="none" fill-rule="evenodd">
        <g id="Tablet-Portrait" transform="translate(-584.000000, -684.000000)">
            <g id="youtube" transform="translate(584.000000, 684.000000)">
                <g id="Layer_x0020_1">
                    <path d="M1417.02,70.913 C1386.6444,43.339 1348.1747,25.2551 1306.101,20.6063 C1214.6541,10.3709 1122.378,5.2189 1029.796,2.6358 C937.8081,0.07044 845.426,0.07044 753.249,0.12359 C661.0851,0.0704404 568.709,0.0704404 476.709,2.6358 C384.1164,5.21887 291.813,10.37085 200.314,20.6063 C158.2809,25.25748 119.8277,43.3496 89.48,70.9355 C59.3253,98.3442 37.1701,135.1544 27.478,177.4685 C14.3937,234.1886 7.7748,293.3675 4.4311,352.9135 C1.0744,412.7116 0.99055,471.7525 0.99055,529.0695 C0.99055,586.3105 0.9917311,645.2745 4.26929,705.1085 C7.5315,764.6278 14.07008,823.8045 27.16139,880.5345 C36.9114,922.8664 59.07719,959.6873 89.22959,987.0945 C119.55919,1014.665 157.97449,1032.7465 199.99559,1037.3977 C291.50629,1047.632 383.80959,1052.7839 476.40259,1055.3658 C568.40109,1057.93116 660.77759,1057.93116 752.95459,1057.87801 C845.17279,1057.93116 937.54759,1057.93116 1029.53359,1055.3658 C1122.11319,1052.78391 1214.38959,1047.63194 1305.88959,1037.3977 C1347.90259,1032.74652 1386.30969,1014.6709 1416.65259,987.1087 C1446.82029,959.7036 1469.01679,922.8791 1478.83059,880.5347 C1491.86409,823.8028 1498.40379,764.6257 1501.67789,705.1087 C1504.90821,646.4161 1504.93537,586.8747 1504.93065,529.0697 L1504.99325,529.0697 L1504.99325,526.16773 L1504.93065,526.16773 C1504.93301,411.31773 1504.93301,289.67573 1479.14835,177.46973 C1469.39834,135.13663 1447.20775,98.31923 1417.01995,70.91373 L1417.02,70.913 Z" id="Shape" fill="#E42B26"></path>
                    <path d="M1038.36,500.76 C952.6745,456.0115 867.565,411.5997 782.557,367.242 C711.894,330.3691 641.295,293.5293 570.491,256.562 L547.1158,244.3577 L547.1158,270.6869 L547.1158,757.4339 L547.1158,783.6969 L570.4284,771.6213 C648.6304,731.113 726.4984,690.7547 804.3634,650.3853 L1038.2974,529.0723 L1065.5277,514.9487 L1038.36,500.7601 L1038.36,500.76 Z" id="Shape" fill="#FFFFFE"></path>
                </g>
            </g>
        </g>
    </g>
</svg>